<svg width="135" height="14" viewBox="0 0 135 14" fill="none" xmlns="http://www.w3.org/2000/svg">
<path d="M3.464 7.294L7.01 13H10.574L6.632 7.294H3.464ZM0.332 0.399999V13H3.374V0.399999H0.332ZM2.24 2.974H4.706C5.114 2.974 5.462 3.04 5.75 3.172C6.05 3.304 6.278 3.496 6.434 3.748C6.59 3.988 6.668 4.282 6.668 4.63C6.668 4.978 6.59 5.278 6.434 5.53C6.278 5.77 6.05 5.956 5.75 6.088C5.462 6.208 5.114 6.268 4.706 6.268H2.24V8.626H4.922C6.002 8.626 6.902 8.452 7.622 8.104C8.342 7.756 8.888 7.276 9.26 6.664C9.632 6.04 9.818 5.326 9.818 4.522C9.818 3.706 9.632 2.992 9.26 2.38C8.888 1.756 8.342 1.27 7.622 0.922C6.902 0.573999 6.002 0.399999 4.922 0.399999H2.24V2.974ZM14.4883 6.7C14.4883 5.956 14.6323 5.302 14.9203 4.738C15.2203 4.162 15.6343 3.712 16.1623 3.388C16.7023 3.064 17.3323 2.902 18.0523 2.902C18.7843 2.902 19.4143 3.064 19.9423 3.388C20.4703 3.712 20.8783 4.162 21.1663 4.738C21.4543 5.302 21.5983 5.956 21.5983 6.7C21.5983 7.444 21.4483 8.104 21.1483 8.68C20.8603 9.244 20.4463 9.688 19.9063 10.012C19.3783 10.336 18.7603 10.498 18.0523 10.498C17.3323 10.498 16.7023 10.336 16.1623 10.012C15.6343 9.688 15.2203 9.244 14.9203 8.68C14.6323 8.104 14.4883 7.444 14.4883 6.7ZM11.2663 6.7C11.2663 7.672 11.4283 8.566 11.7523 9.382C12.0883 10.198 12.5563 10.906 13.1563 11.506C13.7683 12.106 14.4883 12.574 15.3163 12.91C16.1443 13.234 17.0563 13.396 18.0523 13.396C19.0363 13.396 19.9423 13.234 20.7703 12.91C21.5983 12.574 22.3123 12.106 22.9123 11.506C23.5243 10.906 23.9923 10.198 24.3163 9.382C24.6523 8.566 24.8203 7.672 24.8203 6.7C24.8203 5.728 24.6523 4.84 24.3163 4.036C23.9803 3.232 23.5063 2.536 22.8943 1.948C22.2823 1.36 21.5623 0.909999 20.7343 0.598C19.9183 0.274 19.0243 0.112 18.0523 0.112C17.0923 0.112 16.1983 0.274 15.3703 0.598C14.5423 0.909999 13.8223 1.36 13.2103 1.948C12.5983 2.536 12.1183 3.232 11.7703 4.036C11.4343 4.84 11.2663 5.728 11.2663 6.7ZM29.0375 6.736H31.3955C32.2715 6.736 33.0395 6.616 33.6995 6.376C34.3715 6.124 34.8995 5.764 35.2835 5.296C35.6795 4.828 35.8775 4.264 35.8775 3.604C35.8775 2.884 35.6795 2.29 35.2835 1.822C34.8995 1.342 34.3715 0.988 33.6995 0.76C33.0395 0.519999 32.2715 0.399999 31.3955 0.399999H26.7695V13H31.7015C32.6975 13 33.5615 12.88 34.2935 12.64C35.0255 12.388 35.5895 12.004 35.9855 11.488C36.3935 10.972 36.5975 10.294 36.5975 9.454C36.5975 8.818 36.4535 8.278 36.1655 7.834C35.8895 7.378 35.5175 7.006 35.0495 6.718C34.5815 6.418 34.0595 6.202 33.4835 6.07C32.9075 5.938 32.3135 5.872 31.7015 5.872H29.0375V7.528H31.3595C31.6595 7.528 31.9295 7.558 32.1695 7.618C32.4215 7.666 32.6435 7.75 32.8355 7.87C33.0275 7.99 33.1775 8.146 33.2855 8.338C33.3935 8.53 33.4475 8.758 33.4475 9.022C33.4475 9.43 33.3515 9.754 33.1595 9.994C32.9795 10.222 32.7335 10.39 32.4215 10.498C32.1095 10.594 31.7555 10.642 31.3595 10.642H29.8115V2.758H31.0715C31.5875 2.758 31.9895 2.866 32.2775 3.082C32.5775 3.298 32.7275 3.622 32.7275 4.054C32.7275 4.342 32.6615 4.588 32.5295 4.792C32.3975 4.984 32.2055 5.134 31.9535 5.242C31.7135 5.35 31.4195 5.404 31.0715 5.404H29.0375V6.736ZM41.2246 6.7C41.2246 5.956 41.3686 5.302 41.6566 4.738C41.9566 4.162 42.3706 3.712 42.8986 3.388C43.4386 3.064 44.0686 2.902 44.7886 2.902C45.5206 2.902 46.1506 3.064 46.6786 3.388C47.2066 3.712 47.6146 4.162 47.9026 4.738C48.1906 5.302 48.3346 5.956 48.3346 6.7C48.3346 7.444 48.1846 8.104 47.8846 8.68C47.5966 9.244 47.1826 9.688 46.6426 10.012C46.1146 10.336 45.4966 10.498 44.7886 10.498C44.0686 10.498 43.4386 10.336 42.8986 10.012C42.3706 9.688 41.9566 9.244 41.6566 8.68C41.3686 8.104 41.2246 7.444 41.2246 6.7ZM38.0026 6.7C38.0026 7.672 38.1646 8.566 38.4886 9.382C38.8246 10.198 39.2926 10.906 39.8926 11.506C40.5046 12.106 41.2246 12.574 42.0526 12.91C42.8806 13.234 43.7926 13.396 44.7886 13.396C45.7726 13.396 46.6786 13.234 47.5066 12.91C48.3346 12.574 49.0486 12.106 49.6486 11.506C50.2606 10.906 50.7286 10.198 51.0526 9.382C51.3886 8.566 51.5566 7.672 51.5566 6.7C51.5566 5.728 51.3886 4.84 51.0526 4.036C50.7166 3.232 50.2426 2.536 49.6306 1.948C49.0186 1.36 48.2986 0.909999 47.4706 0.598C46.6546 0.274 45.7606 0.112 44.7886 0.112C43.8286 0.112 42.9346 0.274 42.1066 0.598C41.2786 0.909999 40.5586 1.36 39.9466 1.948C39.3346 2.536 38.8546 3.232 38.5066 4.036C38.1706 4.84 38.0026 5.728 38.0026 6.7ZM52.8349 11.776C52.8349 12.232 52.9969 12.622 53.3209 12.946C53.6449 13.27 54.0469 13.432 54.5269 13.432C55.0309 13.432 55.4389 13.27 55.7509 12.946C56.0629 12.622 56.2189 12.232 56.2189 11.776C56.2189 11.32 56.0629 10.93 55.7509 10.606C55.4389 10.282 55.0309 10.12 54.5269 10.12C54.0469 10.12 53.6449 10.282 53.3209 10.606C52.9969 10.93 52.8349 11.32 52.8349 11.776ZM60.1477 8.572L58.0237 10.102C58.3117 10.702 58.7137 11.254 59.2297 11.758C59.7457 12.262 60.3517 12.664 61.0477 12.964C61.7557 13.252 62.5177 13.396 63.3337 13.396C63.9217 13.396 64.4917 13.306 65.0437 13.126C65.6077 12.958 66.1057 12.706 66.5377 12.37C66.9817 12.034 67.3297 11.62 67.5817 11.128C67.8457 10.624 67.9777 10.054 67.9777 9.418C67.9777 8.89 67.8937 8.422 67.7257 8.014C67.5577 7.606 67.3237 7.246 67.0237 6.934C66.7357 6.622 66.3997 6.358 66.0157 6.142C65.6317 5.914 65.2177 5.716 64.7737 5.548C64.1857 5.344 63.6817 5.152 63.2617 4.972C62.8537 4.792 62.5357 4.594 62.3077 4.378C62.0917 4.162 61.9837 3.91 61.9837 3.622C61.9837 3.346 62.0977 3.118 62.3257 2.938C62.5537 2.746 62.8837 2.65 63.3157 2.65C63.6397 2.65 63.9397 2.716 64.2157 2.848C64.5037 2.968 64.7617 3.142 64.9897 3.37C65.2297 3.586 65.4397 3.844 65.6197 4.144L67.9417 2.848C67.7257 2.416 67.4137 1.99 67.0057 1.57C66.5977 1.15 66.0817 0.802 65.4577 0.526C64.8457 0.25 64.1197 0.112 63.2797 0.112C62.4637 0.112 61.7197 0.256 61.0477 0.543999C60.3877 0.819999 59.8597 1.228 59.4637 1.768C59.0797 2.308 58.8877 2.95 58.8877 3.694C58.8877 4.318 59.0017 4.852 59.2297 5.296C59.4577 5.728 59.7457 6.1 60.0937 6.412C60.4417 6.712 60.8077 6.958 61.1917 7.15C61.5877 7.342 61.9357 7.492 62.2357 7.6C62.8477 7.828 63.3397 8.032 63.7117 8.212C64.0837 8.392 64.3537 8.584 64.5217 8.788C64.6897 8.98 64.7737 9.238 64.7737 9.562C64.7737 9.946 64.6297 10.252 64.3417 10.48C64.0537 10.696 63.6877 10.804 63.2437 10.804C62.8237 10.804 62.4217 10.714 62.0377 10.534C61.6657 10.354 61.3177 10.096 60.9937 9.76C60.6817 9.424 60.3997 9.028 60.1477 8.572ZM72.6037 6.7C72.6037 5.92 72.7777 5.254 73.1257 4.702C73.4737 4.15 73.9297 3.73 74.4937 3.442C75.0697 3.154 75.6997 3.01 76.3837 3.01C76.9837 3.01 77.5117 3.088 77.9677 3.244C78.4237 3.388 78.8317 3.592 79.1917 3.856C79.5517 4.108 79.8697 4.378 80.1457 4.666V1.39C79.6417 0.993999 79.0897 0.681999 78.4897 0.454C77.8897 0.226 77.1277 0.112 76.2037 0.112C75.1957 0.112 74.2657 0.267999 73.4137 0.579999C72.5617 0.891999 71.8297 1.342 71.2177 1.93C70.6057 2.518 70.1317 3.214 69.7957 4.018C69.4597 4.822 69.2917 5.716 69.2917 6.7C69.2917 7.684 69.4597 8.578 69.7957 9.382C70.1317 10.186 70.6057 10.882 71.2177 11.47C71.8297 12.058 72.5617 12.508 73.4137 12.82C74.2657 13.132 75.1957 13.288 76.2037 13.288C77.1277 13.288 77.8897 13.174 78.4897 12.946C79.0897 12.718 79.6417 12.406 80.1457 12.01V8.734C79.8697 9.022 79.5517 9.292 79.1917 9.544C78.8317 9.796 78.4237 10 77.9677 10.156C77.5117 10.312 76.9837 10.39 76.3837 10.39C75.6997 10.39 75.0697 10.246 74.4937 9.958C73.9297 9.67 73.4737 9.25 73.1257 8.698C72.7777 8.134 72.6037 7.468 72.6037 6.7ZM83.4788 7.726H93.0008V4.99H83.4788V7.726ZM91.0928 0.399999V13H94.1348V0.399999H91.0928ZM82.6328 0.399999V13H85.6748V0.399999H82.6328ZM99.2852 6.7C99.2852 5.956 99.4292 5.302 99.7172 4.738C100.017 4.162 100.431 3.712 100.959 3.388C101.499 3.064 102.129 2.902 102.849 2.902C103.581 2.902 104.211 3.064 104.739 3.388C105.267 3.712 105.675 4.162 105.963 4.738C106.251 5.302 106.395 5.956 106.395 6.7C106.395 7.444 106.245 8.104 105.945 8.68C105.657 9.244 105.243 9.688 104.703 10.012C104.175 10.336 103.557 10.498 102.849 10.498C102.129 10.498 101.499 10.336 100.959 10.012C100.431 9.688 100.017 9.244 99.7172 8.68C99.4292 8.104 99.2852 7.444 99.2852 6.7ZM96.0632 6.7C96.0632 7.672 96.2252 8.566 96.5492 9.382C96.8852 10.198 97.3532 10.906 97.9532 11.506C98.5652 12.106 99.2852 12.574 100.113 12.91C100.941 13.234 101.853 13.396 102.849 13.396C103.833 13.396 104.739 13.234 105.567 12.91C106.395 12.574 107.109 12.106 107.709 11.506C108.321 10.906 108.789 10.198 109.113 9.382C109.449 8.566 109.617 7.672 109.617 6.7C109.617 5.728 109.449 4.84 109.113 4.036C108.777 3.232 108.303 2.536 107.691 1.948C107.079 1.36 106.359 0.909999 105.531 0.598C104.715 0.274 103.821 0.112 102.849 0.112C101.889 0.112 100.995 0.274 100.167 0.598C99.3392 0.909999 98.6192 1.36 98.0072 1.948C97.3952 2.536 96.9152 3.232 96.5672 4.036C96.2312 4.84 96.0632 5.728 96.0632 6.7ZM114.068 6.7C114.068 5.956 114.212 5.302 114.5 4.738C114.8 4.162 115.214 3.712 115.742 3.388C116.282 3.064 116.912 2.902 117.632 2.902C118.364 2.902 118.994 3.064 119.522 3.388C120.05 3.712 120.458 4.162 120.746 4.738C121.034 5.302 121.178 5.956 121.178 6.7C121.178 7.444 121.028 8.104 120.728 8.68C120.44 9.244 120.026 9.688 119.486 10.012C118.958 10.336 118.34 10.498 117.632 10.498C116.912 10.498 116.282 10.336 115.742 10.012C115.214 9.688 114.8 9.244 114.5 8.68C114.212 8.104 114.068 7.444 114.068 6.7ZM110.846 6.7C110.846 7.672 111.008 8.566 111.332 9.382C111.668 10.198 112.136 10.906 112.736 11.506C113.348 12.106 114.068 12.574 114.896 12.91C115.724 13.234 116.636 13.396 117.632 13.396C118.616 13.396 119.522 13.234 120.35 12.91C121.178 12.574 121.892 12.106 122.492 11.506C123.104 10.906 123.572 10.198 123.896 9.382C124.232 8.566 124.4 7.672 124.4 6.7C124.4 5.728 124.232 4.84 123.896 4.036C123.56 3.232 123.086 2.536 122.474 1.948C121.862 1.36 121.142 0.909999 120.314 0.598C119.498 0.274 118.604 0.112 117.632 0.112C116.672 0.112 115.778 0.274 114.95 0.598C114.122 0.909999 113.402 1.36 112.79 1.948C112.178 2.536 111.698 3.232 111.35 4.036C111.014 4.84 110.846 5.728 110.846 6.7ZM126.35 0.399999V13H134.45V10.39H129.392V0.399999H126.35Z" fill="white"/>
</svg>
